<?xml version="1.0" encoding="UTF-8" standalone="no"?>
<svg width="30px" height="30px" viewBox="0 0 30 30" version="1.1" xmlns="http://www.w3.org/2000/svg" xmlns:xlink="http://www.w3.org/1999/xlink">
    <!-- Generator: Sketch 49.3 (51167) - http://www.bohemiancoding.com/sketch -->
    <title>Glyphs/Search</title>
    <desc>Created with Sketch.</desc>
    <defs></defs>
    <g id="Page-1" stroke="none" stroke-width="1" fill="none" fill-rule="evenodd">
        <g id="Desktop-HD-Copy-12" transform="translate(-87.000000, -790.000000)" fill="#8E8E93">
            <g id="Glyphs/Search" transform="translate(87.000000, 790.000000)">
                <path d="M29.4494885,26.9444051 L21.2359171,18.7276194 C22.7082115,16.7195558 23.4969138,14.2918548 23.4859171,11.8019051 C23.4578249,5.30231029 18.2008214,0.0376595137 11.7012743,0.000119395342 C8.59087459,-0.0139533706 5.60403436,1.21652633 3.40613708,3.41744242 C1.2082398,5.61835851 -0.0181391327,8.60688484 0.000202821899,11.7172623 C0.0282950591,18.2174488 5.28577826,23.4825792 11.7859171,23.5201194 C14.2860104,23.5309551 16.722581,22.7330468 18.7319885,21.2454765 L18.74056,21.239048 L26.9466314,29.4494051 C27.3903075,29.9148626 28.0514152,30.1032688 28.6738062,29.9416252 C29.2961972,29.7799816 29.7820757,29.2936871 29.9431866,28.671158 C30.1042975,28.0486289 29.9153255,27.3876828 29.4494885,26.9444051 L29.4494885,26.9444051 Z M11.7773457,21.1672623 C6.57751867,21.1373501 2.3716005,16.9256966 2.34877425,11.7258337 C2.3347398,9.23785401 3.31592367,6.84751311 5.07391044,5.08691028 C6.83189721,3.32630746 9.22077646,2.34157027 11.7087743,2.35190511 C16.9086013,2.38181722 21.1145194,6.59347074 21.1373457,11.7933337 C21.1513801,14.2813133 20.1701963,16.6716543 18.4122095,18.4322571 C16.6542227,20.1928599 14.2653435,21.1775971 11.7773457,21.1672623 Z" id="Search"></path>
            </g>
        </g>
    </g>
</svg>